<svg xmlns="http://www.w3.org/2000/svg" width="228.883" height="233.457" viewBox="0 0 228.883 233.457">
  <g id="Group_4" data-name="Group 4" transform="translate(-7.766 -34.259)">
    <g id="Group_771" data-name="Group 771" transform="translate(27.31 44.912)">
      <path id="Path_345" data-name="Path 345" d="M176.694,110.768c-21.979,58.066-73.581,101.994-115.254,98.114s-60.476-50.953-42-105.14S84.987,5.628,130.165,5.628,198.675,52.7,176.694,110.768Z" transform="translate(-12.336 -5.628)" fill="none" stroke="#fff" stroke-miterlimit="10" stroke-width="4"/>
    </g>
    <g id="Group_772" data-name="Group 772" transform="translate(10.004 36.259)">
      <path id="Path_345-2" data-name="Path 345" d="M176.694,110.768c-21.979,58.066-73.581,101.994-115.254,98.114s-60.476-50.953-42-105.14S84.987,5.628,130.165,5.628,198.675,52.7,176.694,110.768Z" transform="translate(-12.336 -5.628)" fill="none" stroke="#fff" stroke-miterlimit="10" stroke-width="4"/>
    </g>
    <g id="Group_773" data-name="Group 773" transform="translate(61.922 62.219)">
      <path id="Path_345-3" data-name="Path 345" d="M176.694,110.768c-21.979,58.066-73.581,101.994-115.254,98.114s-60.476-50.953-42-105.14S84.987,5.628,130.165,5.628,198.675,52.7,176.694,110.768Z" transform="translate(-12.336 -5.628)" fill="none" stroke="#fff" stroke-miterlimit="10" stroke-width="4"/>
    </g>
    <g id="Group_774" data-name="Group 774" transform="translate(44.616 53.565)">
      <path id="Path_345-4" data-name="Path 345" d="M176.694,110.768c-21.979,58.066-73.581,101.994-115.254,98.114s-60.476-50.953-42-105.14S84.987,5.628,130.165,5.628,198.675,52.7,176.694,110.768Z" transform="translate(-12.336 -5.628)" fill="none" stroke="#fff" stroke-miterlimit="10" stroke-width="4"/>
    </g>
  </g>
</svg>
